<?xml version="1.0" encoding="UTF-8"?>
<svg id="Layer_1" data-name="Layer 1" xmlns="http://www.w3.org/2000/svg" viewBox="0 0 59.74 132.14">
  <defs>
    <style>
      .cls-1 {
        fill: none;
        stroke: #231f20;
        stroke-miterlimit: 10;
      }

      .cls-2, .cls-3, .cls-4, .cls-5, .cls-6, .cls-7 {
        stroke-width: 0px;
      }

      .cls-3 {
        fill: #7a7b7b;
      }

      .cls-4 {
        fill: #957346;
      }

      .cls-5 {
        fill: #e0bfa4;
      }

      .cls-6 {
        fill: #b3292e;
      }

      .cls-7 {
        fill: #fdd10b;
      }
    </style>
  </defs>
  <g>
    <path class="cls-6" d="m13.25,125.93c-1.16.69-2.14,1.39-4,1.5-2.58.16-4.84-.36-6.55-2.2l-.21.18c.13.41-.02,1.27.25,1.78.29.53,1.42,1.16,2,1.48,1.35.75,3,1.06,4.5.75,1.77-.37,3.24-1.37,4.83-2.15,1.78-.88,4.06-.6,5.77-1.6.99-.58,1.41-1.54.91-2.61-1.18,1.87-3.47,1.24-5.6,1.96-.76.26-1.36.58-1.92.92Z"/>
    <path class="cls-6" d="m11.22,120.74c-.88-.76-2.02-1.23-3.31-1.47h0c-2.57,1.02-4.98,1.89-5.33,5.83.04.05.08.09.12.13,1.71,1.84,3.97,2.36,6.55,2.2,1.86-.11,2.84-.82,4-1.5,0-2.41-.76-4.1-2.03-5.19Z"/>
    <path class="cls-6" d="m45.33,126.44c1.14.86,2.23,1.81,3.44,2.38l.06-.13h0c0-.08-.48-3.55.5-5.58.11-.22.23-.43.36-.62-1.46-.98-2.4-1.82-5.53-3.29-.18-.09-.37-.11-.58-.11-.81,0-1.84.44-3.42-.64,0,0,0,0-.01-.01,0,0,0,0-.01-.01-.39-.33-.55-.97-.48-2.13-1.36,1.33.1,4.26.17,5.73,0,.18.04.36.08.52h0c.54,1.91,3.43,2.42,5.41,3.9Z"/>
    <path class="cls-6" d="m48.83,128.69h0s-.06.13-.06.13c.98.46,2.05.67,3.31.37,1.45-.34,4.37-2.5,5.03-4.07h-.03c.31-3.21-1.14-4.13-3.05-4.82-1.15-.13-3.19.52-4.34,2.19-.13.19-.25.4-.36.62-.98,2.04-.5,5.51-.5,5.58Z"/>
    <path class="cls-6" d="m20.11,115.63c-.11,1.64-1.68,1.52-2.9.88-.19.21-.46.39-.82.54-1.1,1.45-4.17,2.33-5.15,3.68l-.02.02c1.27,1.1,2.03,2.78,2.03,5.19.56-.33,1.16-.66,1.92-.92,2.13-.72,4.42-.09,5.6-1.96.15-.24.29-.53.4-.87.44-1.32.24-5.63-.28-6.72.04-.05-.69.16-.77.17,0,0,0,0,0,0Z"/>
    <path class="cls-6" d="m57.24,125.1l-.11-.05s-.01.04-.02.06c-.66,1.57-3.58,3.73-5.03,4.07-1.26.3-2.33.09-3.31-.37-1.22-.57-2.3-1.53-3.44-2.38-1.98-1.48-4.88-1.99-5.41-3.9h0l-.17-.02h0c-.08.85-.07,1.19.17,2,1.71,1.13,3.42,1.43,5.04,2.75,1.52,1.24,3.64,2.92,5.54,3.42,2.79.73,8.83-3,6.75-5.58Z"/>
    <path class="cls-6" d="m16.39,117.05c.18-.24.31-.5.37-.78.3-1.52-.67-2.2-2.01-2.33-.89-.09-1.29-.02-1.47.17-.33.33.03,1.04-.53,1.84-1.29,1.85-3.1,2.62-4.84,3.32h0c1.29.25,2.42.72,3.31,1.48l.02-.02c.98-1.35,4.05-2.23,5.15-3.68Z"/>
    <path class="cls-6" d="m44.16,119.19c3.12,1.48,4.07,2.31,5.53,3.29,1.15-1.67,3.19-2.32,4.34-2.19-1.29-.47-2.8-.83-4.12-1.74-1.32-.91-1.88-3.45-3.16-3.75-2.07-.49-3.34,2.21-2.59,4.38Z"/>
    <path class="cls-5" d="m40.15,118.42s0,0,.01.01c1.57,1.08,2.61.64,3.42.64v-.05c-.42-1.08-.5-3,.42-3.73.19-.15.43-.29.7-.4-.61-3.11-.02-8.83-.29-12.99-.15-2.34-1.24-3.84-1.79-5.97-.5-1.93-.21-4.28-.21-6.33l-.06-.11c-2.91,1.62-5.46,1.99-8.94,1.88v.06c3.33,4.67,1,9.51,2.83,13.53,1.09,2.4,2.12,4.91,2.84,7.47.3,1.05.49,2.11.82,3.17.04.11.06.25.08.42.11.85.07,2.25.14,2.39,0,0,0,0,.01.01Z"/>
    <path class="cls-6" d="m17.21,116.51c1.1-1.19-.33-3.14-2.06-3.24-.63-.04-1.31.17-1.91.75l.03.08h0c.18-.19.58-.26,1.47-.17,1.34.14,2.31.81,2.01,2.33-.06.28-.18.54-.37.78.36-.15.63-.33.82-.54Z"/>
    <path class="cls-5" d="m15.15,113.27c1.73.1,3.15,2.06,2.06,3.24,1.22.64,2.79.76,2.9-.88,0,0,0,0,0,0,.44-6.3,2.72-7.82,4.43-12.03.93-2.3,1.08-3.57,1.04-6-.02-1.44.31-2.73.92-5.04-3.16.07-5.78-.38-8.7-1.35h0s0,.03,0,.03c.62.19-.26,3.01-.55,3.85-.68,1.98-1.59,3.61-1.83,6-.37,3.7-.25,9.74-.25,12v.16s0,0,0,0Z"/>
    <path class="cls-6" d="m44.16,119.19c-.75-2.17.52-4.87,2.59-4.38-.31-.4-1.28-.25-2.05.08-.27.12-.52.26-.7.4-.92.73-.83,2.65-.42,3.73v.05c.21,0,.4.02.58.11Z"/>
    <path class="cls-3" d="m26.5,92.57c.41,0,.82-.03,1.25-.05v-.08c-.39-2.64.55-7.91.58-11.6-.29-.12-.53-.25-.75-.39-.22,3.63-1.28,8.27-1,11.83-.03.1-.05.2-.08.3Z"/>
    <path class="cls-3" d="m39.35,74.47c.13.46.27.93.4,1.4,1.24,4.34,2.55,8.87,3.99,12.74l.02.03c.33-.21.66-.45,1-.7-2.68-6.11-4.05-12.42-5.09-16.54-.32.21-.67.39-1.02.55h0s.03.2.03.2c.22.76.44,1.54.67,2.32Z"/>
    <path class="cls-3" d="m27.74,92.44v.08c.43-.03.86-.06,1.31-.1.06-2.15.41-7.2.53-8.98h.01c-.31-.86-.65-1.7-1.01-2.5-.09-.03-.17-.07-.25-.1-.03,3.69-.97,8.96-.58,11.6Z"/>
    <path class="cls-3" d="m17.58,78.02h0c.79-.11,3.79-1.19,2.63-2.89-.91.54-1.69,1.25-2.46,1.39h-.02c-.05.5-.1,1-.16,1.5h0Z"/>
    <path class="cls-3" d="m22.44,75.25c.26.04,1.05.04,1.28,0,.08-.72-.01-1.55-.24-2.14-.38-.03-.76-.06-1.15-.1v.02c.08.83-.04,1.31.11,2.23Z"/>
    <path class="cls-3" d="m39.5,75.94h0s.25-.07.25-.07c-.13-.47-.27-.94-.4-1.4l-.19.05h0c-1.39.21-3.1-.06-4.4-.41-.07.41-.06.98,0,1.39,2.13.51,4.8.46,4.74.43Z"/>
    <path class="cls-3" d="m28.58,80.93c.36.8.7,1.64,1.01,2.5.9,2.5,1.5,5.2,1.35,7.81.88.06,1.7.11,2.48.13,3.47.11,6.03-.27,8.94-1.88.46-.25.93-.54,1.41-.86l-.02-.03c-1.44-3.87-2.75-8.4-3.99-12.74l-.25.07h0c.06.03-2.61.08-4.74-.43-.06-.41-.07-.98,0-1.39,1.31.35,3.01.61,4.4.41h0s.19-.05.19-.05c-.23-.79-.45-1.56-.67-2.32l-.03-.2h0c-1.49.66-3,.8-2.86.38-.46-.25,1.18-1.03,2.38-1.53-1.01.39-2.44.91-3.18,1v.04c-.6.19-1.26.38-1.98.55.34.59.46,1.46.79,2.09-.23.14-.74.34-1.13.43v-.05s-.01,0-.01,0c-.63-.54-1.07-1.32-1.16-2.15-2.23.41-4.9.63-8.02.4.22.59.31,1.43.24,2.14-.23.04-1.02.04-1.28,0-.15-.92-.02-1.4-.11-2.23v-.02c-.72-.08-1.46-.18-2.22-.3.1.37.21.89.11,1.38-.44-.02-.72-.13-1.12-.3.05-.5-.02-.84-.03-1.27-.24-.05-.48-.09-.73-.15-.32,1.37-.48,2.76-.62,4.15h.02c.77-.14,1.55-.84,2.46-1.39,1.16,1.7-1.83,2.78-2.63,2.89h0s0,0,0,0c-.1.97-.23,1.95-.41,2.92-.59,3.08-1.16,5.92-2.39,9.14,1.06.44,2.06.82,3.03,1.14,2.91.97,5.54,1.42,8.7,1.35.03-.1.05-.2.08-.3-.28-3.56.78-8.2,1-11.83.22.14.46.27.75.39.08.03.16.07.25.1Z"/>
    <path class="cls-3" d="m19.1,73.78c.4.17.68.28,1.12.3.1-.49,0-1.02-.11-1.38-.34-.06-.68-.12-1.03-.19,0,.43.08.77.03,1.27Z"/>
    <path class="cls-3" d="m32.66,74.85h0s.01.06.01.06c.39-.09.9-.29,1.13-.43-.33-.63-.45-1.5-.79-2.09-.48.12-.99.22-1.52.32.1.83.54,1.61,1.16,2.15Z"/>
    <path class="cls-5" d="m39.29,70.34c-.1.04-.54.22-1.1.44.55-.23,1-.41,1.1-.44Zm-.68-.88s-.32.1-.75.23c.42-.14.72-.22.75-.23Zm2.6.24l.04.02c1.25-2.97,9.58-9.62,9.5-14.2-.04-2.48-2.61-5.52-3.82-7.48-1.18,1.94-2.41,3.27-4.48,4.45,1.02,1.76,1.97,3.13,2.34,4.28l.25.14h0c-1.31,1.62-2.58,4.52-4.84,8.9l-.18-.09c.12-.22-.39-.74-.66-.94,0,0-.01,0-.02-.01-.26,1.12-.68,1.88-.98,2.1-1.05.75-5.78.46-5.25,1.58.38.82,5.36-.29,5.17-.22-.27.31-5.3,1.36-5.17,2.19.25.55,3.28-.28,4.74-.72-1.28.42-3.65,1.33-3.16,2.1.08.01.19,0,.32,0,.74-.09,2.17-.61,3.18-1-1.2.5-2.85,1.28-2.38,1.53-.14.43,1.38.28,2.86-.38.35-.16.7-.34,1.02-.55.69-.45,1.27-1.01,1.54-1.7Z"/>
    <path class="cls-5" d="m7.38,42.5c.35,4.19.9,9.7,2.44,13.11,3.83,8.5,5.83,3.17,7.33,1.67h.05c.01-.52.03-1.02.04-1.51.04-1.41.06-2.38.1-3.18-1.74-.55-3.43-1.52-4.22-2.48-.41-.5-.58-.99-.38-1.43-.63-2.34-1.43-4.86-2.41-6.72.91-.62,1.22-1.96.45-2.83-.05-.06-.1-.11-.16-.16-.33-.29-1.15-.5-2.02-.63-.54-.08-1.1-.13-1.57-.14-.6-.02-1.05.01-1.14.09-.01.28.03.5.1.69h-.03c-.05-.07-.1-.17-.14-.27-.08.47-.23,1.03-.62,1.2.11,1.15.8,2.39,1.99,2.61l.19-.02Z"/>
    <path class="cls-7" d="m13.12,50.1c-.12-.46-.24-.94-.38-1.43-.2.44-.03.93.38,1.43Z"/>
    <path class="cls-7" d="m24.16,37.44c-.24.3-.19.73-.33,1.08.1,3.38,2.22,4.81,5.75,4.58,3-.2,5.85-3.97,5.02-5.84-.23-.51-.73-.88-1.58-.99.02.16.04.33.06.5,1.61,4.02-7.48,8.35-7.83,1.17-.01-.26-.01-.54,0-.84-.61,0-.92.14-1.08.34Z"/>
    <path class="cls-5" d="m6,38.97c-.08-.18-.12-.41-.1-.69.09-.08.54-.11,1.14-.09-.17-.57-.2-1.3-.13-1.96-1.14-2.18-1.58-.89-1.47.67.05.63.18,1.3.4,1.8.04.1.09.19.14.28h.03Z"/>
    <path class="cls-5" d="m5.83,38.71c-.22-.5-.36-1.18-.4-1.8h-.03c-1.5-2.11-1.75,2.36-.33,3.05.05,0,.09-.02.14-.04.39-.17.54-.73.62-1.2Z"/>
    <path class="cls-5" d="m33.02,36.27c-.06-.51-.1-1-.12-1.5-.02-.46,0-.94.02-1.44,0,0,0,0,0,0-.83.35-1.65.93-2.21,1.24-1.73.97-3.93,1.69-5.37,1.81v.14c.03.57-.01.75-.01,1.42h-.08s0,0,0,0c.35,7.18,9.44,2.85,7.83-1.17-.02-.17-.04-.33-.06-.5Z"/>
    <path class="cls-7" d="m20.11,72.69c.77.13,1.51.23,2.23.3.39.04.77.08,1.15.1,3.12.23,5.78.01,8.02-.4.53-.1,1.04-.21,1.52-.32.71-.17,1.37-.36,1.98-.55v-.04c-.13.02-.24.02-.32,0-.48-.77,1.88-1.68,3.16-2.1-1.46.44-4.49,1.27-4.74.72-.13-.83,4.89-1.88,5.17-2.19.2-.07-4.78,1.04-5.17.22-.53-1.12,4.21-.83,5.25-1.58.31-.22.72-.98.98-2.1,0,0,.01,0,.02.01-.16-4.3.22-9.09-.36-12.93l.03-.02c.33.62.68,1.22,1.05,1.79.9-.37,1.68-.74,2.37-1.13,2.07-1.18,3.3-2.52,4.48-4.45.39-.63.77-1.33,1.17-2.1-1.87-1.86-5.52-6.33-7.85-8-.87-.62-2.16-.83-5.64-.67.83,1.87-2.02,5.64-5.02,5.84-3.53.23-5.65-1.21-5.75-4.58.15-.35.09-.78.33-1.08l-.08-.09c-4.83.25-6.18,1.68-7.17,2.75-2.17,2.34-3.08,6.2-4.17,8.57.13.49.26.96.38,1.43.79.96,2.48,1.92,4.22,2.48-.04.81-.07,1.77-.1,3.18-.01.49-.02.99-.04,1.51-.08,3.1-.15,6.63.04,9.66.25,4.13.67,5.33.67,5.33.15.03.29.06.44.09.24.05.49.1.73.15.35.07.69.13,1.03.19Z"/>
    <path class="cls-5" d="m8.61,38.34c.87.13,1.68.34,2.02.63.06.05.11.11.16.16l.07-.05c-.72-2.68-.34-8.26-2.83-8.02-.88.14.44,2.48.57,4.78h-.11c-.8-2.12-1.45-1.07-1.6.4-.06.65-.03,1.39.13,1.96.47.02,1.03.06,1.57.14Z"/>
    <path class="cls-4" d="m32.9,34.77h0c2.28.2,4.88.71,7.19.77-2.47-.71-4.9-1.39-7.18-2.21-.03.51-.04.98-.02,1.44h0Z"/>
    <path class="cls-2" d="m19.16,21.76c0,.87.38,1.58.85,1.58.47,0,.84-.7.85-1.58,0-.87-.38-1.58-.84-1.58-.47,0-.85.7-.85,1.58Z"/>
    <path class="cls-2" d="m30.45,21.86c0,.81.44,1.46.98,1.46.55,0,.99-.65.99-1.45,0-.8-.44-1.45-.99-1.45-.54,0-.98.65-.98,1.45Z"/>
    <path class="cls-4" d="m14.11,16.2c.82,4.64.24,12.61-2.16,16.75,3.6,1.48,6.68,2.25,10.56,2.5-1.92-1.06-4.42-2.73-5.19-3.74-2.8-3.67-.94-9.68-.99-10.67-.07-1.17-.97-2.91-1.66-4.98v-.03s0,0,0,0c-.19.04-.37.09-.55.14v.03Z"/>
    <path class="cls-5" d="m22.51,35.45c.66.37,1.26.66,1.69.84.26.1.66.13,1.14.09,1.44-.13,3.64-.84,5.37-1.81.55-.31,1.38-.89,2.21-1.24-.68-.24-1.35-.5-2-.77,4.23-4.84,5.13-8.16,5.21-15.36l.04-.15c-1.35-.35-2.73-.72-4.12-1.11-.47-2.67-.12-5.16-.41-7.96-.34,2.5-1.4,5.4-2.23,7.82-3.24-.9-9.92-.89-14.75.23h0s0,.03,0,.03c.69,2.08,1.59,3.81,1.66,4.98.06.99-1.8,6.99.99,10.67.77,1.01,3.27,2.67,5.19,3.74Zm-2.5-12.11c-.47,0-.85-.71-.85-1.58,0-.87.38-1.58.85-1.58.47,0,.84.71.84,1.58,0,.87-.38,1.58-.85,1.58Zm11.42-.02c-.54,0-.98-.65-.98-1.46,0-.8.44-1.45.98-1.45.55,0,.99.65.99,1.45,0,.81-.44,1.45-.99,1.45Z"/>
    <path class="cls-4" d="m40.1,35.53c.17.05.34.1.5.14.89-1.84,1.85-3.34,2.47-5.35,2.33-7.66,2.61-12.91.19-18.25-1.49-3.28-4.63-9.7-10.03-8.8,0,0-1.25-1.73-2.77-1.6-11.49-.01-18.52,6.39-19.89,15.9.89-.58,2.11-1.04,3.53-1.41.18-.05.37-.09.55-.14,4.83-1.12,11.51-1.14,14.75-.23.82-2.43,1.88-5.32,2.23-7.82.29,2.8-.06,5.29.41,7.96,1.39.39,2.77.76,4.12,1.11l-.04.15c-.08,7.2-.98,10.52-5.21,15.36.65.27,1.32.52,2,.77,0,0,0,0,0,0,0,0,0,0,0,0,2.28.82,4.71,1.5,7.18,2.21Z"/>
  </g>
  <g>
    <line class="cls-1" x1="39.75" y1="75.87" x2="39.5" y2="75.94"/>
    <line class="cls-1" x1="32.66" y1="74.85" x2="32.67" y2="74.91"/>
    <polyline class="cls-1" points="39.35 74.47 39.35 74.47 39.16 74.52"/>
    <line class="cls-1" x1="2.7" y1="125.24" x2="2.49" y2="125.41"/>
    <polyline class="cls-1" points="48.83 128.69 48.83 128.69 48.77 128.82"/>
    <line class="cls-1" x1="57.08" y1="125.1" x2="57.11" y2="125.12"/>
    <polyline class="cls-1" points="11.23 120.72 11.22 120.74 11.22 120.74"/>
    <polyline class="cls-1" points="57.13 125.06 57.13 125.06 57.24 125.1"/>
    <line class="cls-1" x1="39.91" y1="122.54" x2="39.74" y2="122.52"/>
    <line class="cls-1" x1="7.91" y1="119.26" x2="7.91" y2="119.27"/>
    <line class="cls-1" x1="43.58" y1="119.02" x2="43.58" y2="119.07"/>
    <line class="cls-1" x1="13.24" y1="114.02" x2="13.28" y2="114.1"/>
    <line class="cls-1" x1="15.16" y1="113.1" x2="15.15" y2="113.26"/>
    <line class="cls-1" x1="27.74" y1="92.44" x2="27.75" y2="92.51"/>
    <polyline class="cls-1" points="17.8 91.22 17.79 91.25 17.79 91.25"/>
    <line class="cls-1" x1="33.41" y1="91.38" x2="33.41" y2="91.44"/>
    <polyline class="cls-1" points="42.35 89.49 42.35 89.49 42.41 89.6"/>
    <line class="cls-1" x1="43.74" y1="88.6" x2="43.76" y2="88.63"/>
    <line class="cls-1" x1="29.59" y1="83.43" x2="29.58" y2="83.43"/>
    <line class="cls-1" x1="17.58" y1="78.02" x2="17.58" y2="78.02"/>
    <line class="cls-1" x1="17.73" y1="76.52" x2="17.75" y2="76.52"/>
    <line class="cls-1" x1="22.33" y1="73" x2="22.33" y2="73.02"/>
    <polyline class="cls-1" points="34.99 71.79 34.99 71.79 34.99 71.83"/>
    <line class="cls-1" x1="38.65" y1="71.94" x2="38.68" y2="72.14"/>
    <polyline class="cls-1" points="41.21 69.7 41.25 69.72 41.25 69.72"/>
    <line class="cls-1" x1="40.01" y1="65.72" x2="40.19" y2="65.82"/>
    <line class="cls-1" x1="44.79" y1="56.77" x2="45.04" y2="56.91"/>
    <line class="cls-1" x1="39.03" y1="51.83" x2="38.99" y2="51.85"/>
    <line class="cls-1" x1="39.03" y1="51.83" x2="39.03" y2="51.83"/>
    <line class="cls-1" x1="25.33" y1="37.94" x2="25.25" y2="37.94"/>
    <polyline class="cls-1" points="24.08 37.35 24.16 37.44 24.16 37.44"/>
    <line class="cls-1" x1="25.34" y1="36.38" x2="25.33" y2="36.52"/>
    <line class="cls-1" x1="32.91" y1="34.77" x2="32.9" y2="34.77"/>
    <line class="cls-1" x1="14.11" y1="16.17" x2="14.11" y2="16.2"/>
    <line class="cls-1" x1="14.66" y1="16.04" x2="14.67" y2="16.06"/>
    <line class="cls-1" x1="36.16" y1="17.05" x2="36.12" y2="17.19"/>
    <path class="cls-1" d="m30.47,1.68c-11.49-.01-18.52,6.39-19.89,15.9.89-.58,2.11-1.04,3.53-1.41.18-.05.37-.09.55-.14,4.83-1.12,11.51-1.14,14.75-.23.82-2.43,1.88-5.32,2.23-7.82.29,2.8-.06,5.29.41,7.96,1.39.39,2.77.76,4.12,1.11,1.07.27,2.12.53,3.15.77,1.18-2.84,0-8.17-3.66-11.22"/>
    <path class="cls-1" d="m22.54,35.45s-.02,0-.03,0c-3.88-.25-6.96-1.02-10.56-2.5,2.41-4.14,2.99-12.11,2.16-16.75"/>
    <path class="cls-1" d="m30.47,1.68c1.52-.14,2.77,1.6,2.77,1.6,5.4-.9,8.54,5.52,10.03,8.8,2.42,5.34,2.13,10.6-.19,18.25-.61,2.01-1.58,3.51-2.47,5.35-.17-.05-.34-.1-.5-.14-2.47-.71-4.9-1.39-7.18-2.21,0,0,0,0,0,0-.68-.24-1.35-.5-2-.77,4.23-4.84,5.13-8.16,5.21-15.36"/>
    <path class="cls-1" d="m14.67,16.06c.69,2.08,1.59,3.81,1.66,4.98.06.99-1.8,6.99.99,10.67.77,1.01,3.27,2.67,5.19,3.74.66.37,1.26.66,1.69.84.26.1.66.13,1.14.09,1.44-.13,3.64-.84,5.37-1.81.55-.31,1.38-.89,2.21-1.24,0,0,0,0,0,0"/>
    <path class="cls-1" d="m18.64,18.97c.31-1.11,1.35-.86,1.66-.17"/>
    <path class="cls-1" d="m29.86,18.02c.73-.73,1.83-.76,2.77.45"/>
    <path class="cls-1" d="m23.66,24.24c-.38,1-.59,1.66-1.74,1.23.3,1.11.61,1.32,1.53,1.82"/>
    <path class="cls-1" d="m22.12,29.78c1.15,1.28,3.91,1.25,4.88,0"/>
    <path class="cls-1" d="m32.91,34.77c2.28.2,4.88.71,7.19.77.1,0,.2,0,.3,0"/>
    <path class="cls-1" d="m20.85,21.76c0,.87-.38,1.58-.85,1.58-.47,0-.85-.71-.85-1.58,0-.87.38-1.58.85-1.58.47,0,.84.71.84,1.58Z"/>
    <path class="cls-1" d="m32.42,21.86c0,.81-.44,1.45-.99,1.45-.54,0-.98-.65-.98-1.46,0-.8.44-1.45.98-1.45.55,0,.99.65.99,1.45Z"/>
    <path class="cls-1" d="m25.24,37.1c-.01.3-.01.58,0,.84.35,7.18,9.44,2.85,7.83-1.17"/>
    <path class="cls-1" d="m39.4,65.73c-.02-.31-.03-.63-.04-.95-.16-4.3.22-9.09-.36-12.93"/>
    <path class="cls-1" d="m18.58,44.1c-.88,5.31-1.12,6.31-1.23,8.48-.04.81-.07,1.77-.1,3.18-.01.49-.02.99-.04,1.51-.08,3.1-.15,6.63.04,9.66.25,4.13.67,5.33.67,5.33.15.03.29.06.44.09.24.05.49.1.73.15.35.07.69.13,1.03.19.77.13,1.51.23,2.23.3.39.04.77.08,1.15.1,3.12.23,5.78.01,8.02-.4.53-.1,1.04-.21,1.52-.32.71-.17,1.37-.36,1.98-.55"/>
    <path class="cls-1" d="m32.99,36.27s.02,0,.02,0c.85.11,1.36.48,1.58.99.83,1.87-2.02,5.64-5.02,5.84-3.53.23-5.65-1.21-5.75-4.58.15-.35.09-.78.33-1.08.17-.2.47-.34,1.08-.34"/>
    <path class="cls-1" d="m35.75,46.1c1.33,1.77,2.25,3.83,3.28,5.73h0c.33.62.68,1.22,1.05,1.79.9-.37,1.68-.74,2.37-1.13,2.07-1.18,3.3-2.52,4.48-4.45.39-.63.77-1.33,1.17-2.1-1.87-1.86-5.52-6.33-7.85-8-.87-.62-2.16-.83-5.64-.67,0,0-.01,0-.02,0"/>
    <path class="cls-1" d="m24.08,37.35c-4.83.25-6.18,1.68-7.17,2.75-2.17,2.34-3.08,6.2-4.17,8.57-.2.44-.03.93.38,1.43.79.96,2.48,1.92,4.22,2.48.02,0,.04.01.07.02"/>
    <path class="cls-1" d="m17.24,55.1c-.92,3.33-.58,2.42-1,3.08"/>
    <path class="cls-1" d="m42.41,52.44s.02.04.03.05c1.02,1.76,1.97,3.13,2.34,4.28"/>
    <path class="cls-1" d="m40.12,65.96s.05-.09.07-.14c2.26-4.38,3.54-7.28,4.84-8.9.4-.5.81-.88,1.25-1.15"/>
    <path class="cls-1" d="m46.91,48.02s0,.01.01.02c1.21,1.96,3.78,5,3.82,7.48.08,4.57-8.24,11.23-9.5,14.2-.02.06-.05.12-.07.18"/>
    <path class="cls-1" d="m18.41,72.1c-.02.09-.04.17-.06.26-.32,1.37-.48,2.76-.62,4.15-.05.5-.1,1-.16,1.5-.1.97-.23,1.95-.41,2.92-.59,3.08-1.16,5.92-2.39,9.14,1.06.44,2.06.82,3.03,1.14,2.91.97,5.54,1.42,8.7,1.35.41,0,.82-.03,1.25-.05.42-.03.86-.06,1.3-.1.06-2.15.41-7.2.53-8.98"/>
    <path class="cls-1" d="m28.58,80.93c.36.8.7,1.64,1.01,2.5.9,2.5,1.5,5.2,1.35,7.81.88.06,1.7.11,2.48.13,3.47.11,6.03-.27,8.94-1.88.46-.25.93-.54,1.41-.86.33-.21.66-.45,1-.7-2.68-6.11-4.05-12.42-5.09-16.54,0-.01,0-.03-.01-.04"/>
    <path class="cls-1" d="m25.33,78.6c1.07.83,1.55,1.39,2.25,1.84.22.14.46.27.75.39.08.03.16.07.25.1,1.5-1,2.46-2.03,2.92-3.08"/>
    <path class="cls-1" d="m17.75,76.52c.77-.14,1.55-.85,2.46-1.39,1.16,1.7-1.83,2.78-2.63,2.89"/>
    <path class="cls-1" d="m38.68,72.14c.22.76.44,1.54.67,2.32.13.46.27.93.4,1.4,1.24,4.34,2.55,8.87,3.99,12.74"/>
    <path class="cls-1" d="m27.58,80.44s0,0,0,0c-.22,3.63-1.28,8.27-1,11.83"/>
    <path class="cls-1" d="m26.08,73.27c.25,2.5,1.16,4.84,1.33,4.67"/>
    <path class="cls-1" d="m28.08,73.19c.25,1.33.42,2.5.42,2.5"/>
    <path class="cls-1" d="m22.33,73.02c.08.83-.04,1.31.11,2.23.26.04,1.05.04,1.28,0,.08-.72-.01-1.55-.24-2.14-.02-.06-.04-.11-.07-.17"/>
    <path class="cls-1" d="m19.08,72.27c0,.08,0,.16,0,.24,0,.43.08.77.03,1.27.4.17.68.28,1.12.3.1-.49,0-1.02-.11-1.38,0-.03-.02-.06-.03-.09"/>
    <path class="cls-1" d="m28.33,80.77v.07c-.03,3.69-.97,8.96-.58,11.6"/>
    <path class="cls-1" d="m17.58,91.27c.09-.03.16-.04.22-.02.62.19-.26,3.01-.55,3.85-.68,1.98-1.59,3.61-1.83,6-.37,3.7-.25,9.74-.25,12"/>
    <path class="cls-1" d="m26.58,92.27c-.03.1-.05.2-.08.3-.62,2.31-.95,3.59-.92,5.04.04,2.43-.1,3.7-1.04,6-1.71,4.21-3.99,5.73-4.43,12.03-.01.18-.02.37-.03.56"/>
    <path class="cls-1" d="m33.41,91.44c3.33,4.67,1.01,9.51,2.83,13.53,1.09,2.4,2.12,4.91,2.84,7.47.3,1.05.49,2.11.82,3.17.04.11.06.25.08.42.11.85.07,2.25.14,2.39,0,0,0,.01.01.01.02,0,.05-.1.1-.32"/>
    <path class="cls-1" d="m42.41,89.6c0,2.05-.29,4.4.21,6.33.55,2.12,1.64,3.62,1.79,5.97.27,4.15-.33,9.88.29,12.99.01.07.03.15.05.22"/>
    <path class="cls-1" d="m2.58,125.1c.35-3.95,2.76-4.81,5.33-5.84,1.74-.7,3.55-1.47,4.84-3.32.56-.8.2-1.5.53-1.84.18-.19.58-.26,1.47-.17,1.34.14,2.31.81,2.01,2.33-.06.28-.18.54-.37.78-1.1,1.45-4.17,2.33-5.15,3.68"/>
    <path class="cls-1" d="m13.24,126.1c0-.06,0-.11,0-.17,0-2.41-.76-4.1-2.03-5.19-.88-.76-2.02-1.23-3.31-1.47"/>
    <path class="cls-1" d="m13.24,114.02c.6-.58,1.28-.79,1.91-.75,1.73.1,3.15,2.06,2.06,3.24-.19.21-.46.39-.82.54-.05.02-.09.04-.14.05"/>
    <path class="cls-1" d="m2.58,125.1s.08.09.12.13c1.71,1.84,3.97,2.36,6.55,2.2,1.86-.11,2.84-.82,4-1.5.56-.33,1.16-.66,1.92-.92,2.13-.72,4.42-.09,5.6-1.96.15-.24.29-.53.4-.87.44-1.32.24-5.63-.28-6.72.04-.05-.69.16-.77.17,0,0,0,0,0,0-.11,1.64-1.68,1.52-2.9.88-.04-.02-.09-.05-.13-.07"/>
    <path class="cls-1" d="m40,116.02s0,0,0,0c-.13.08-.24.17-.34.26-1.36,1.33.1,4.26.17,5.73,0,.18.04.36.08.52h0c.54,1.91,3.43,2.42,5.41,3.9,1.14.86,2.23,1.81,3.44,2.38.98.46,2.05.67,3.31.37,1.45-.34,4.37-2.5,5.03-4.07,0-.02.02-.04.02-.06.06-.16.1-.31.11-.45"/>
    <path class="cls-1" d="m44.16,119.19c-.75-2.17.52-4.87,2.59-4.38,1.29.3,1.84,2.84,3.16,3.75,1.32.9,2.82,1.27,4.12,1.74,1.91.69,3.36,1.61,3.05,4.81"/>
    <path class="cls-1" d="m49.75,122.52s-.04-.03-.06-.04c-1.46-.98-2.4-1.82-5.53-3.29-.18-.09-.37-.11-.58-.11-.81,0-1.84.44-3.42-.64,0,0,0,0-.01-.01,0,0,0,0-.01-.01-.39-.33-.55-.97-.48-2.13,0-.03,0-.07,0-.1"/>
    <path class="cls-1" d="m39.74,122.44s0,.06,0,.08c-.08.85-.07,1.19.17,2,1.71,1.13,3.42,1.43,5.04,2.75,1.52,1.24,3.64,2.92,5.54,3.42,2.79.73,8.83-3,6.75-5.58"/>
    <path class="cls-1" d="m43.58,119.02c-.42-1.08-.5-3,.42-3.73.19-.15.43-.29.7-.4.77-.33,1.74-.48,2.05-.08"/>
    <line class="cls-1" x1="48.83" y1="128.69" x2="48.83" y2="128.69"/>
    <path class="cls-1" d="m54.33,120.35c-.09-.03-.19-.04-.3-.06-1.15-.13-3.19.52-4.34,2.19-.13.19-.25.4-.36.62-.98,2.04-.5,5.51-.5,5.58h0"/>
    <path class="cls-1" d="m2.41,125.27s.06.09.08.14c.13.41-.02,1.27.25,1.78.29.53,1.42,1.16,2,1.48,1.35.75,3,1.06,4.5.75,1.77-.37,3.24-1.37,4.83-2.15,1.78-.88,4.06-.6,5.77-1.6.99-.58,1.41-1.54.91-2.61,0-.01,0-.02-.02-.04"/>
    <path class="cls-1" d="m32.92,33.32s0,0,0,0c-.03.51-.04.98-.02,1.44.02.5.06.99.12,1.5.02.16.04.33.06.5"/>
    <path class="cls-1" d="m25.33,36.52c.04.57,0,.75,0,1.42"/>
    <path class="cls-1" d="m37.84,69.69c-1.46.44-4.49,1.27-4.74.72-.13-.83,4.89-1.88,5.17-2.19.2-.07-4.78,1.04-5.17.22-.53-1.12,4.21-.83,5.25-1.58.31-.22.72-.98.98-2.1,0,0,.01,0,.02.01.27.2.78.72.66.94-.03.05-.1.09-.22.1"/>
    <path class="cls-1" d="m38.61,69.45s0,0,0,0c-.03,0-.32.1-.75.23"/>
    <path class="cls-1" d="m37.86,69.69c.42-.14.72-.22.75-.23"/>
    <path class="cls-1" d="m37.86,69.69s-.01,0-.02,0"/>
    <path class="cls-1" d="m38.17,70.79c-1.01.39-2.44.91-3.18,1-.13.02-.23.02-.32,0-.48-.77,1.88-1.68,3.16-2.1"/>
    <path class="cls-1" d="m39.31,70.33s0,0,0,0h0s0,0,0,0c0,0,0,0-.01,0-.1.04-.54.22-1.1.44"/>
    <path class="cls-1" d="m38.18,70.78c.55-.23,1-.41,1.1-.44"/>
    <path class="cls-1" d="m38.18,70.78s0,0-.01,0"/>
    <path class="cls-1" d="m41.24,68.05c.2.61.17,1.16-.03,1.65-.27.68-.85,1.25-1.54,1.7-.32.21-.67.39-1.02.55-1.49.66-3,.81-2.86.38-.46-.25,1.18-1.03,2.38-1.53"/>
    <path class="cls-1" d="m32.35,74.96c.09,0,.2-.03.32-.05.39-.09.9-.29,1.13-.43-.33-.63-.45-1.5-.79-2.09,0,0,0-.02-.02-.03"/>
    <path class="cls-1" d="m39.16,74.52c-1.39.21-3.1-.06-4.4-.41-.07.41-.06.98,0,1.39,2.13.51,4.8.46,4.74.43,0,0,0,0,0,0"/>
    <path class="cls-1" d="m31.49,72.69s0,.01,0,.02c.1.83.54,1.61,1.16,2.15,0,0,0,0,0,0"/>
    <line class="cls-1" x1="7.38" y1="42.5" x2="7.19" y2="42.52"/>
    <line class="cls-1" x1="6" y1="38.97" x2="5.97" y2="38.98"/>
    <line class="cls-1" x1="10.85" y1="39.08" x2="10.79" y2="39.13"/>
    <line class="cls-1" x1="5.43" y1="36.9" x2="5.4" y2="36.9"/>
    <line class="cls-1" x1="8.6" y1="35.84" x2="8.49" y2="35.84"/>
    <path class="cls-1" d="m14.48,55.11c-.31-.62-.75-2.62-1.36-5.01-.12-.46-.24-.94-.38-1.43-.63-2.34-1.43-4.86-2.41-6.72,0,0,0,0,0-.01"/>
    <path class="cls-1" d="m17.15,57.28c-1.5,1.5-3.5,6.83-7.33-1.67-1.54-3.41-2.09-8.92-2.44-13.11,0,0,0-.02,0-.03"/>
    <path class="cls-1" d="m9.42,42.28c.35-.03.66-.15.92-.33.91-.62,1.22-1.96.45-2.83-.05-.06-.1-.11-.16-.16-.33-.29-1.15-.5-2.02-.63-.54-.08-1.1-.13-1.57-.14-.6-.02-1.05.01-1.14.09-.01.28.03.5.1.69.55,1.29,3.07.54,3.21,1.6"/>
    <path class="cls-1" d="m5.4,36.9c-1.5-2.11-1.75,2.36-.33,3.04.05,0,.09-.02.14-.04.39-.17.54-.73.62-1.2,0,0,0,0,0-.01"/>
    <path class="cls-1" d="m7.19,42.52c-1.18-.22-1.88-1.47-1.99-2.61,0-.07-.01-.14-.01-.21"/>
    <path class="cls-1" d="m10.85,39.08c-.72-2.68-.34-8.26-2.83-8.02-.88.14.44,2.48.57,4.78.01.17.01.34,0,.51"/>
    <path class="cls-1" d="m7.06,38.28s-.02-.06-.03-.09c-.17-.57-.2-1.3-.13-1.96.15-1.47.8-2.53,1.6-.4"/>
    <path class="cls-1" d="m5.97,38.98c-.05-.08-.1-.18-.14-.28-.22-.5-.36-1.18-.4-1.8-.12-1.56.32-2.85,1.47-.67,0,0,0,0,0,.01"/>
    <path class="cls-1" d="m8.69,37c-.12.43-.15.89-.08,1.34,0,.02,0,.03,0,.05"/>
  </g>
</svg>